<?xml version="1.0" standalone="no"?>
<!DOCTYPE svg PUBLIC "-//W3C//DTD SVG 20010904//EN"
 "http://www.w3.org/TR/2001/REC-SVG-20010904/DTD/svg10.dtd">
<svg version="1.0" xmlns="http://www.w3.org/2000/svg"
 width="905.000000pt" height="905.000000pt" viewBox="0 0 905.000000 905.000000"
 preserveAspectRatio="xMidYMid meet">
<metadata>
Created by potrace 1.14, written by Peter Selinger 2001-2017
</metadata>
<g transform="translate(0.000000,905.000000) scale(0.100000,-0.100000)"
fill="#000000" stroke="none">
<path d="M3759 8299 c413 -413 751 -753 751 -755 0 -1 -660 -3 -1467 -3 -808
0 -1485 0 -1505 -1 l-38 0 0 -753 0 -753 745 -744 c409 -410 748 -746 754
-748 5 -2 9 281 9 720 0 398 1 734 1 748 l1 25 1498 -1 c823 -1 1502 -2 1509
-3 10 -1 12 -155 12 -678 0 -373 1 -709 1 -748 l0 -70 750 750 750 750 0 752
0 753 -1507 2 -1508 3 748 747 c411 411 747 750 747 753 0 3 -675 5 -1501 5
l-1501 0 751 -751z"/>
<path d="M2252 3768 l-752 -753 0 -752 0 -753 23 -1 c29 0 2485 0 4465 0
l1542 1 0 753 0 752 -750 750 c-723 723 -750 749 -750 715 0 -19 -2 -357 -3
-750 l-2 -715 -1503 0 c-878 0 -1506 4 -1509 9 -3 5 -6 343 -6 752 1 409 0
744 -1 744 -1 0 -340 -339 -754 -752z"/>
<path d="M3757 750 l-749 -750 1501 0 c826 0 1501 2 1501 4 0 8 -1491 1496
-1498 1496 -4 -1 -344 -338 -755 -750z"/>
</g>
</svg>
